<svg width="20" height="19" viewBox="0 0 20 19" fill="none" xmlns="http://www.w3.org/2000/svg">
<path fill-rule="evenodd" clip-rule="evenodd" d="M8.01953 16.3361C8.72971 16.919 9.40108 17.47 10 18.0011L10.001 18.0091C10.3343 17.7115 10.6897 17.4088 11.0619 17.099L11.0394 14.5359L10.974 14.5891L10.8 14.7321L10.136 15.2771L10.127 15.2851H10.121L10.11 15.2931L10.103 15.2991L10.062 15.3321L10.044 15.3471H10.039H10.034L10.025 15.3541H10.019L10.013 15.3591L10 15.3711C9.73303 15.1491 9.45703 14.9231 9.19003 14.7051L9.01503 14.5621L9.01472 14.5619C8.73682 14.335 8.45893 14.108 8.18603 13.8831C7.20003 13.0691 6.06003 12.1011 5.06903 11.1011C4.01914 10.1032 3.15354 8.92782 2.51203 7.62911C2.18586 6.93096 2.01136 6.17163 1.99994 5.40112C1.99359 4.49615 2.35442 3.62728 3.00003 2.99313C3.6701 2.34597 4.56854 1.98947 5.50003 2.00112C6.63811 1.99145 7.72609 2.46847 8.49003 3.31213L10 5.05212L11.51 3.31213C12.274 2.46847 13.362 1.99145 14.5 2.00112C15.4327 1.9916 16.3312 2.35104 17 3.00112C17.6436 3.63342 18.0042 4.49896 18.0001 5.40112C17.9901 6.17962 17.8131 6.94692 17.481 7.65112C17.0633 8.49682 16.5505 9.29019 15.9535 10.0162L18.4495 9.99423C18.7799 9.49865 19.0691 8.98898 19.306 8.46411C19.7532 7.5043 19.9898 6.45993 20 5.40112C20.003 3.95059 19.4213 2.56011 18.3862 1.54388C17.3512 0.527674 15.9502 -0.028478 14.5 0.00112403C13.3197 0.00283301 12.1648 0.344081 11.173 0.984126C10.7381 1.26882 10.3435 1.6109 10 2.00112C9.65845 1.60937 9.264 1.26708 8.82803 0.984126C7.83586 0.344203 6.68066 0.0029856 5.50003 0.00112403C4.04982 -0.028478 2.64888 0.527674 1.61384 1.54388C0.5788 2.56011 -0.00296405 3.95059 1.90453e-05 5.40112C0.0109367 6.45825 0.247547 7.50085 0.694027 8.4591C2.05018 11.4628 5.11714 13.9706 7.82795 16.1872L7.84503 16.2011H7.85503L8.01953 16.3361ZM13 8.99999H15V12.0078L18.0031 12.0125L18 14.0125L15 14.0078V17H13V14.0047L10 14L10.0031 12L13 12.0047V8.99999Z" fill="#2E3A59"/>
</svg>
